<mxfile host="app.diagrams.net" modified="2024-05-03T06:59:03.285Z" agent="Mozilla/5.0 (Windows NT 10.0; Win64; x64) AppleWebKit/537.36 (KHTML, like Gecko) Chrome/124.0.0.0 Safari/537.36" etag="3gZdMwyh04kjIJU69QrQ" version="24.3.1" type="device">
  <diagram name="Trang-1" id="ES6ybIctiGi0EwjYnvGL">
    <mxGraphModel dx="1434" dy="749" grid="1" gridSize="10" guides="1" tooltips="1" connect="1" arrows="1" fold="1" page="1" pageScale="1" pageWidth="827" pageHeight="1169" math="0" shadow="0">
      <root>
        <mxCell id="0" />
        <mxCell id="1" parent="0" />
        <mxCell id="WZ_NhQCUnQF3fm7AklZf-1" value="" style="html=1;strokeColor=none;resizeWidth=1;resizeHeight=1;fillColor=none;part=1;connectable=0;allowArrows=0;deletable=0;whiteSpace=wrap;fontStyle=1;fontSize=13;" vertex="1" parent="1">
          <mxGeometry x="90" y="890" width="20" as="geometry" />
        </mxCell>
        <mxCell id="WZ_NhQCUnQF3fm7AklZf-2" value="" style="sketch=0;aspect=fixed;pointerEvents=1;shadow=0;dashed=0;html=1;strokeColor=#314354;labelPosition=center;verticalLabelPosition=bottom;verticalAlign=top;align=center;fillColor=#647687;shape=mxgraph.mscae.enterprise.client_application;fontColor=#ffffff;fontStyle=0;fontSize=16;" vertex="1" parent="1">
          <mxGeometry x="230.94999999999993" y="1430" width="110.94" height="71" as="geometry" />
        </mxCell>
        <mxCell id="WZ_NhQCUnQF3fm7AklZf-3" value="" style="sketch=0;aspect=fixed;pointerEvents=1;shadow=0;dashed=0;html=1;strokeColor=#314354;labelPosition=center;verticalLabelPosition=bottom;verticalAlign=top;align=center;fillColor=#647687;shape=mxgraph.mscae.enterprise.internet_hollow;fontColor=#ffffff;fontStyle=0;fontSize=16;" vertex="1" parent="1">
          <mxGeometry x="221.91000000000003" y="1284" width="129.03" height="80" as="geometry" />
        </mxCell>
        <mxCell id="WZ_NhQCUnQF3fm7AklZf-4" value="" style="sketch=0;aspect=fixed;pointerEvents=1;shadow=0;dashed=0;html=1;strokeColor=#314354;labelPosition=center;verticalLabelPosition=bottom;verticalAlign=top;align=center;fillColor=#647687;shape=mxgraph.mscae.enterprise.wireless_connection;direction=north;fontColor=#ffffff;fontStyle=0;fontSize=16;" vertex="1" parent="1">
          <mxGeometry x="268.57" y="1309" width="35.71" height="30" as="geometry" />
        </mxCell>
        <mxCell id="WZ_NhQCUnQF3fm7AklZf-5" value="" style="sketch=0;aspect=fixed;pointerEvents=1;shadow=0;dashed=0;html=1;strokeColor=#314354;labelPosition=center;verticalLabelPosition=bottom;verticalAlign=top;align=center;fillColor=#647687;shape=mxgraph.mscae.enterprise.firewall;fontColor=#ffffff;fontStyle=0;fontSize=16;" vertex="1" parent="1">
          <mxGeometry x="461.59000000000003" y="1304" width="56.82" height="50" as="geometry" />
        </mxCell>
        <mxCell id="WZ_NhQCUnQF3fm7AklZf-6" value="" style="sketch=0;aspect=fixed;pointerEvents=1;shadow=0;dashed=0;html=1;strokeColor=#314354;labelPosition=center;verticalLabelPosition=bottom;verticalAlign=top;align=center;fillColor=#647687;shape=mxgraph.mscae.enterprise.server_farm;fontColor=#ffffff;fontStyle=0;fontSize=16;" vertex="1" parent="1">
          <mxGeometry x="638.77" y="1294" width="109.38" height="70" as="geometry" />
        </mxCell>
        <mxCell id="WZ_NhQCUnQF3fm7AklZf-7" value="" style="sketch=0;aspect=fixed;pointerEvents=1;shadow=0;dashed=0;html=1;strokeColor=#314354;labelPosition=center;verticalLabelPosition=bottom;verticalAlign=top;align=center;fillColor=#647687;shape=mxgraph.mscae.enterprise.database_generic;fontColor=#ffffff;fontStyle=0;fontSize=16;" vertex="1" parent="1">
          <mxGeometry x="558.0200000000002" y="1430" width="66.6" height="90" as="geometry" />
        </mxCell>
        <mxCell id="WZ_NhQCUnQF3fm7AklZf-8" value="" style="endArrow=classic;html=1;rounded=0;exitX=1;exitY=0.5;exitDx=0;exitDy=0;exitPerimeter=0;fontStyle=0;edgeStyle=elbowEdgeStyle;fontSize=16;startArrow=classic;entryX=0.429;entryY=0.994;entryDx=0;entryDy=0;entryPerimeter=0;" edge="1" parent="1" source="WZ_NhQCUnQF3fm7AklZf-7" target="WZ_NhQCUnQF3fm7AklZf-6">
          <mxGeometry width="50" height="50" relative="1" as="geometry">
            <mxPoint x="721.85" y="1519" as="sourcePoint" />
            <mxPoint x="768" y="1320" as="targetPoint" />
            <Array as="points">
              <mxPoint x="686" y="1420" />
            </Array>
          </mxGeometry>
        </mxCell>
        <mxCell id="WZ_NhQCUnQF3fm7AklZf-9" value="" style="endArrow=classic;html=1;rounded=0;exitX=0.949;exitY=0.564;exitDx=0;exitDy=0;exitPerimeter=0;entryX=0;entryY=0.5;entryDx=0;entryDy=0;entryPerimeter=0;fontStyle=0;fontSize=16;startArrow=classic;" edge="1" parent="1" source="WZ_NhQCUnQF3fm7AklZf-3" target="WZ_NhQCUnQF3fm7AklZf-5">
          <mxGeometry width="50" height="50" relative="1" as="geometry">
            <mxPoint x="517.85" y="1386" as="sourcePoint" />
            <mxPoint x="567.85" y="1336" as="targetPoint" />
          </mxGeometry>
        </mxCell>
        <mxCell id="WZ_NhQCUnQF3fm7AklZf-10" value="HTTPS" style="text;html=1;strokeColor=none;fillColor=none;align=center;verticalAlign=middle;whiteSpace=wrap;rounded=0;fontStyle=1;fontSize=9;" vertex="1" parent="1">
          <mxGeometry x="350.94" y="1309" width="39.11" height="18" as="geometry" />
        </mxCell>
        <mxCell id="WZ_NhQCUnQF3fm7AklZf-11" value="" style="endArrow=classic;html=1;rounded=0;fontStyle=0;fontSize=16;startArrow=classic;entryX=0.5;entryY=0;entryDx=0;entryDy=0;entryPerimeter=0;exitX=0.5;exitY=1;exitDx=0;exitDy=0;exitPerimeter=0;" edge="1" parent="1" source="WZ_NhQCUnQF3fm7AklZf-3" target="WZ_NhQCUnQF3fm7AklZf-2">
          <mxGeometry width="50" height="50" relative="1" as="geometry">
            <mxPoint x="340" y="1390" as="sourcePoint" />
            <mxPoint x="420" y="1220" as="targetPoint" />
          </mxGeometry>
        </mxCell>
        <mxCell id="WZ_NhQCUnQF3fm7AklZf-12" value="&lt;b&gt;Laptop, PC&amp;nbsp;&lt;/b&gt;&lt;br&gt;(IIJF Website)" style="text;html=1;strokeColor=none;fillColor=none;align=center;verticalAlign=middle;whiteSpace=wrap;rounded=0;fontStyle=0;fontSize=16;" vertex="1" parent="1">
          <mxGeometry x="225.14000000000001" y="1520" width="122.55" height="30" as="geometry" />
        </mxCell>
        <mxCell id="WZ_NhQCUnQF3fm7AklZf-13" value="" style="endArrow=classic;html=1;rounded=0;exitX=1;exitY=0.5;exitDx=0;exitDy=0;exitPerimeter=0;entryX=0;entryY=0.5;entryDx=0;entryDy=0;entryPerimeter=0;fontStyle=0;fontSize=16;startArrow=classic;" edge="1" parent="1" source="WZ_NhQCUnQF3fm7AklZf-5" target="WZ_NhQCUnQF3fm7AklZf-6">
          <mxGeometry width="50" height="50" relative="1" as="geometry">
            <mxPoint x="677.4000000000001" y="1360.81" as="sourcePoint" />
            <mxPoint x="795.4" y="1360.81" as="targetPoint" />
          </mxGeometry>
        </mxCell>
        <mxCell id="WZ_NhQCUnQF3fm7AklZf-14" value="HTTP(S)" style="text;html=1;strokeColor=none;fillColor=none;align=center;verticalAlign=middle;whiteSpace=wrap;rounded=0;fontStyle=1;fontSize=9;rotation=90;" vertex="1" parent="1">
          <mxGeometry x="644.9699999999999" y="1375" width="60" height="30" as="geometry" />
        </mxCell>
        <mxCell id="WZ_NhQCUnQF3fm7AklZf-15" value="&lt;span style=&quot;font-size: 16px;&quot;&gt;Firewall&lt;/span&gt;" style="text;html=1;strokeColor=none;fillColor=none;align=center;verticalAlign=middle;whiteSpace=wrap;rounded=0;fontStyle=1;fontSize=16;" vertex="1" parent="1">
          <mxGeometry x="458.4100000000001" y="1264" width="60" height="30" as="geometry" />
        </mxCell>
        <mxCell id="WZ_NhQCUnQF3fm7AklZf-16" value="INTERNET" style="text;html=1;strokeColor=none;fillColor=none;align=center;verticalAlign=middle;whiteSpace=wrap;rounded=0;fontStyle=0;fontSize=14;" vertex="1" parent="1">
          <mxGeometry x="256.43000000000006" y="1336" width="60" height="30" as="geometry" />
        </mxCell>
        <mxCell id="WZ_NhQCUnQF3fm7AklZf-17" value="" style="rounded=0;whiteSpace=wrap;html=1;fontSize=16;fontStyle=0;fillColor=#f5f5f5;fontColor=#333333;strokeColor=#666666;" vertex="1" parent="1">
          <mxGeometry x="180" y="1620" width="650" height="130" as="geometry" />
        </mxCell>
        <mxCell id="WZ_NhQCUnQF3fm7AklZf-18" value="&lt;span style=&quot;font-size: 16px;&quot;&gt;&lt;b&gt;Legend&lt;/b&gt;&lt;/span&gt;" style="text;html=1;strokeColor=none;fillColor=none;align=center;verticalAlign=middle;whiteSpace=wrap;rounded=0;fontSize=16;fontStyle=0" vertex="1" parent="1">
          <mxGeometry x="190" y="1620" width="60" height="30" as="geometry" />
        </mxCell>
        <mxCell id="WZ_NhQCUnQF3fm7AklZf-19" value="File I/O" style="text;html=1;strokeColor=none;fillColor=none;align=center;verticalAlign=middle;whiteSpace=wrap;rounded=0;fontStyle=1;rotation=90;fontSize=11;" vertex="1" parent="1">
          <mxGeometry x="676.3199999999999" y="1380" width="74.62" height="20" as="geometry" />
        </mxCell>
        <mxCell id="WZ_NhQCUnQF3fm7AklZf-20" value="&lt;b&gt;Database &lt;/b&gt;&lt;br style=&quot;font-size: 16px;&quot;&gt;(MongoDB)" style="text;html=1;strokeColor=none;fillColor=none;align=center;verticalAlign=middle;whiteSpace=wrap;rounded=0;fontStyle=0;fontSize=16;" vertex="1" parent="1">
          <mxGeometry x="506.3199999999999" y="1540" width="170" height="20" as="geometry" />
        </mxCell>
        <mxCell id="WZ_NhQCUnQF3fm7AklZf-21" value="&lt;b&gt;File Storage&lt;/b&gt;&amp;nbsp;&lt;br style=&quot;border-color: var(--border-color);&quot;&gt;(Cloudinary)" style="text;html=1;strokeColor=none;fillColor=none;align=center;verticalAlign=middle;whiteSpace=wrap;rounded=0;fontStyle=0;fontSize=16;" vertex="1" parent="1">
          <mxGeometry x="704.97" y="1540" width="170" height="21" as="geometry" />
        </mxCell>
        <mxCell id="WZ_NhQCUnQF3fm7AklZf-22" value="" style="sketch=0;aspect=fixed;pointerEvents=1;shadow=0;dashed=0;html=1;strokeColor=#314354;labelPosition=center;verticalLabelPosition=bottom;verticalAlign=top;align=center;fillColor=#647687;shape=mxgraph.mscae.enterprise.server_farm;fontColor=#ffffff;fontStyle=0;fontSize=16;" vertex="1" parent="1">
          <mxGeometry x="282.21000000000004" y="1641.25" width="54.69" height="35" as="geometry" />
        </mxCell>
        <mxCell id="WZ_NhQCUnQF3fm7AklZf-23" value="&lt;span style=&quot;font-size: 16px;&quot;&gt;&lt;b&gt;Server machine&lt;/b&gt;&lt;br&gt;&lt;/span&gt;&amp;nbsp;(Windown 10&lt;div&gt;&amp;nbsp;disk: 30GB)&lt;span style=&quot;font-size: 16px;&quot;&gt;&lt;br&gt;&lt;/span&gt;&lt;/div&gt;" style="text;html=1;strokeColor=none;fillColor=none;align=center;verticalAlign=middle;whiteSpace=wrap;rounded=0;fontSize=16;fontStyle=0" vertex="1" parent="1">
          <mxGeometry x="232.06" y="1693" width="155" height="30" as="geometry" />
        </mxCell>
        <mxCell id="WZ_NhQCUnQF3fm7AklZf-24" value="" style="sketch=0;aspect=fixed;pointerEvents=1;shadow=0;dashed=0;html=1;strokeColor=#314354;labelPosition=center;verticalLabelPosition=bottom;verticalAlign=top;align=center;fillColor=#647687;shape=mxgraph.mscae.enterprise.client_application;fontColor=#ffffff;fontStyle=0;fontSize=16;" vertex="1" parent="1">
          <mxGeometry x="426.75" y="1636.25" width="62.5" height="40" as="geometry" />
        </mxCell>
        <mxCell id="WZ_NhQCUnQF3fm7AklZf-25" value="" style="endArrow=classic;html=1;rounded=0;fontSize=16;startArrow=classic;fontStyle=0" edge="1" parent="1">
          <mxGeometry width="50" height="50" relative="1" as="geometry">
            <mxPoint x="658.3399999999999" y="1672.5" as="sourcePoint" />
            <mxPoint x="691.5999999999999" y="1642.5" as="targetPoint" />
          </mxGeometry>
        </mxCell>
        <mxCell id="WZ_NhQCUnQF3fm7AklZf-26" value="&lt;span&gt;&lt;span style=&quot;font-size: 16px;&quot;&gt;&lt;b&gt;Laptop or PC&lt;/b&gt;&lt;br&gt;&lt;/span&gt;(Chorme, Firefox, Microsoft Edge)&lt;/span&gt;&lt;span style=&quot;font-size: 16px;&quot;&gt;&lt;br&gt;&lt;/span&gt;" style="text;html=1;strokeColor=none;fillColor=none;align=center;verticalAlign=middle;whiteSpace=wrap;rounded=0;fontSize=16;fontStyle=0" vertex="1" parent="1">
          <mxGeometry x="377" y="1693" width="162" height="30" as="geometry" />
        </mxCell>
        <mxCell id="WZ_NhQCUnQF3fm7AklZf-27" value="&lt;span style=&quot;font-size: 16px;&quot;&gt;&lt;b&gt;Communication&lt;br style=&quot;font-size: 16px;&quot;&gt;protocol&lt;/b&gt;&lt;br style=&quot;font-size: 16px;&quot;&gt;&lt;/span&gt;" style="text;html=1;strokeColor=none;fillColor=none;align=center;verticalAlign=middle;whiteSpace=wrap;rounded=0;fontSize=16;fontStyle=0" vertex="1" parent="1">
          <mxGeometry x="633.77" y="1688" width="82.39" height="30" as="geometry" />
        </mxCell>
        <mxCell id="WZ_NhQCUnQF3fm7AklZf-28" value="" style="sketch=0;aspect=fixed;pointerEvents=1;shadow=0;dashed=0;html=1;strokeColor=#314354;labelPosition=center;verticalLabelPosition=bottom;verticalAlign=top;align=center;fillColor=#647687;shape=mxgraph.mscae.enterprise.database_generic;fontColor=#ffffff;fontStyle=0;fontSize=16;" vertex="1" parent="1">
          <mxGeometry x="768.3499999999999" y="1633.75" width="33.3" height="45" as="geometry" />
        </mxCell>
        <mxCell id="WZ_NhQCUnQF3fm7AklZf-29" value="&lt;span style=&quot;font-size: 16px;&quot;&gt;&lt;b&gt;Database&lt;/b&gt;&lt;br style=&quot;font-size: 16px;&quot;&gt;&lt;/span&gt;" style="text;html=1;strokeColor=none;fillColor=none;align=center;verticalAlign=middle;whiteSpace=wrap;rounded=0;fontSize=16;fontStyle=0" vertex="1" parent="1">
          <mxGeometry x="748.1500000000001" y="1688" width="82.39" height="30" as="geometry" />
        </mxCell>
        <mxCell id="WZ_NhQCUnQF3fm7AklZf-30" value="" style="sketch=0;aspect=fixed;pointerEvents=1;shadow=0;dashed=0;html=1;strokeColor=#314354;labelPosition=center;verticalLabelPosition=bottom;verticalAlign=top;align=center;fillColor=#647687;shape=mxgraph.mscae.enterprise.firewall;fontColor=#ffffff;fontStyle=0;fontSize=16;" vertex="1" parent="1">
          <mxGeometry x="558.02" y="1640.75" width="40.34" height="35.5" as="geometry" />
        </mxCell>
        <mxCell id="WZ_NhQCUnQF3fm7AklZf-31" value="&lt;span style=&quot;font-size: 16px;&quot;&gt;&lt;b&gt;Firewall&lt;/b&gt;&lt;/span&gt;" style="text;html=1;strokeColor=none;fillColor=none;align=center;verticalAlign=middle;whiteSpace=wrap;rounded=0;fontStyle=0;fontSize=16;" vertex="1" parent="1">
          <mxGeometry x="548.1899999999999" y="1688" width="60" height="30" as="geometry" />
        </mxCell>
        <mxCell id="WZ_NhQCUnQF3fm7AklZf-33" value="" style="endArrow=classic;html=1;rounded=0;fontStyle=0;edgeStyle=orthogonalEdgeStyle;fontSize=16;startArrow=classic;entryX=0.571;entryY=0.975;entryDx=0;entryDy=0;entryPerimeter=0;" edge="1" parent="1" target="WZ_NhQCUnQF3fm7AklZf-6">
          <mxGeometry width="50" height="50" relative="1" as="geometry">
            <mxPoint x="759.0614545454546" y="1475" as="sourcePoint" />
            <mxPoint x="778" y="1340" as="targetPoint" />
          </mxGeometry>
        </mxCell>
        <mxCell id="WZ_NhQCUnQF3fm7AklZf-34" style="edgeStyle=elbowEdgeStyle;rounded=0;orthogonalLoop=1;jettySize=auto;html=1;entryX=0.5;entryY=1;entryDx=0;entryDy=0;entryPerimeter=0;" edge="1" parent="1" source="WZ_NhQCUnQF3fm7AklZf-2" target="WZ_NhQCUnQF3fm7AklZf-2">
          <mxGeometry relative="1" as="geometry" />
        </mxCell>
        <mxCell id="WZ_NhQCUnQF3fm7AklZf-35" value="HTTPS" style="text;html=1;strokeColor=none;fillColor=none;align=center;verticalAlign=middle;whiteSpace=wrap;rounded=0;fontStyle=1;fontSize=9;rotation=90;" vertex="1" parent="1">
          <mxGeometry x="282.21" y="1380" width="39.11" height="18" as="geometry" />
        </mxCell>
        <mxCell id="WZ_NhQCUnQF3fm7AklZf-36" value="HTTPS" style="text;html=1;strokeColor=none;fillColor=none;align=center;verticalAlign=middle;whiteSpace=wrap;rounded=0;fontStyle=1;fontSize=9;" vertex="1" parent="1">
          <mxGeometry x="530" y="1304" width="39.11" height="18" as="geometry" />
        </mxCell>
        <mxCell id="WZ_NhQCUnQF3fm7AklZf-37" value="" style="sketch=0;pointerEvents=1;shadow=0;dashed=0;html=1;strokeColor=#314354;fillColor=#647687;labelPosition=center;verticalLabelPosition=bottom;verticalAlign=top;outlineConnect=0;align=center;shape=mxgraph.office.concepts.folder_open;fontColor=#ffffff;" vertex="1" parent="1">
          <mxGeometry x="761.35" y="1441.75" width="78.65" height="66.5" as="geometry" />
        </mxCell>
      </root>
    </mxGraphModel>
  </diagram>
</mxfile>
